<svg width="43" height="39" fill="none" xmlns="http://www.w3.org/2000/svg"><path d="M41.819 19.16a2.32 2.32 0 01-2.318 2.323l-36.72.04a2.32 2.32 0 01-.006-4.64l36.721-.04a2.32 2.32 0 012.323 2.317z" fill="#fff"/><path d="M22.188 37.137a2.285 2.285 0 01-.088-3.282l14.924-15.388a2.413 2.413 0 013.357-.09c.951.882.99 2.351.088 3.282L25.545 37.048c-.903.93-2.406.97-3.357.09z" fill="#fff"/><path d="M21.89 2.014a2.411 2.411 0 013.355-.045l15.551 14.795c.939.893.959 2.361.045 3.28a2.411 2.411 0 01-3.355.045L21.935 5.294a2.283 2.283 0 01-.045-3.28z" fill="#fff"/></svg>