<svg width="43" height="39" fill="none" xmlns="http://www.w3.org/2000/svg"><path d="M1.136 19.986a2.32 2.32 0 012.32-2.32h36.721a2.32 2.32 0 010 4.64H3.457a2.32 2.32 0 01-2.32-2.32z" fill="#fff"/><path d="M20.788 2.03c.95.883.987 2.353.084 3.283L5.93 20.685a2.413 2.413 0 01-3.357.086 2.285 2.285 0 01-.084-3.282L17.431 2.117a2.413 2.413 0 013.357-.086z" fill="#fff"/><path d="M21.046 37.154a2.411 2.411 0 01-3.355.042L2.155 22.384a2.283 2.283 0 01-.04-3.28 2.411 2.411 0 013.354-.041l15.535 14.812c.937.894.956 2.362.04 3.28z" fill="#fff"/></svg>